HIERARCHY
ROOT Hips
{
	OFFSET -3.958830 18.904000 13.208200
	CHANNELS 6 Xposition Yposition Zposition Zrotation Yrotation Xrotation 
	JOINT LHipJoint
	{
		OFFSET 0.000000 0.000000 0.000000
		CHANNELS 3 Zrotation Yrotation Xrotation
		JOINT LeftUpLeg
		{
			OFFSET 1.800000 -1.400000 0.085000
			CHANNELS 3 Zrotation Yrotation Xrotation
			JOINT LeftLeg
			{
				OFFSET 2.215000 -6.000000 0.000000
				CHANNELS 3 Zrotation Yrotation Xrotation
				JOINT LeftFoot
				{
					OFFSET 2.500000 -6.900000 0.000000
					CHANNELS 3 Zrotation Yrotation Xrotation
					JOINT LeftToeBase
					{
						OFFSET 0.200000 -0.500000 1.950000
						CHANNELS 3 Zrotation Yrotation Xrotation
						End Site
						{
							OFFSET 0.000000 0.000000 0.000000
						}
					}
				}
			}
		}
	}
	JOINT RHipJoint
	{
		OFFSET 0.000000 0.000000 0.000000
		CHANNELS 3 Zrotation Yrotation Xrotation
		JOINT RightUpLeg
		{
			OFFSET -1.800000 -1.400000 0.085000
			CHANNELS 3 Zrotation Yrotation Xrotation
			JOINT RightLeg
			{
				OFFSET -2.215000 -6.000000 0.000000
				CHANNELS 3 Zrotation Yrotation Xrotation
				JOINT RightFoot
				{
					OFFSET -2.500000 -6.900000 0.000000
					CHANNELS 3 Zrotation Yrotation Xrotation
					JOINT RightToeBase
					{
						OFFSET -0.200000 -0.500000 1.950000
						CHANNELS 3 Zrotation Yrotation Xrotation
						End Site
						{
							OFFSET 0.000000 0.000000 0.000000
						}
					}
				}
			}
		}
	}
	JOINT LowerBack
	{
		OFFSET 0.000000 0.000000 0.000000
		CHANNELS 3 Zrotation Yrotation Xrotation
		JOINT Spine
		{
			OFFSET -0.087000 1.940000 -0.288900
			CHANNELS 3 Zrotation Yrotation Xrotation
			JOINT Spine1
			{
				OFFSET 0.000000 1.950000 0.060000
				CHANNELS 3 Zrotation Yrotation Xrotation
				JOINT Neck
				{
					OFFSET 0.000000 0.000000 0.000000
					CHANNELS 3 Zrotation Yrotation Xrotation
					JOINT Neck1
					{
						OFFSET 0.000000 1.600000 0.340000
						CHANNELS 3 Zrotation Yrotation Xrotation
						JOINT Head
						{
							OFFSET 0.000000 1.667000 -0.240000
							CHANNELS 3 Zrotation Yrotation Xrotation
							End Site
							{
								OFFSET 0.000000 0.000000 0.000000
							}
						}
					}
				}
				JOINT LeftShoulder
				{
					OFFSET 0.000000 0.000000 0.000000
					CHANNELS 3 Zrotation Yrotation Xrotation
					JOINT LeftArm
					{
						OFFSET 2.700000 1.550000 -0.730000
						CHANNELS 3 Zrotation Yrotation Xrotation
						JOINT LeftForeArm
						{
							OFFSET 5.450000 0.000000 0.000000
							CHANNELS 3 Zrotation Yrotation Xrotation
							JOINT LeftHand
							{
								OFFSET 3.450000 0.000000 0.000000
								CHANNELS 3 Zrotation Yrotation Xrotation
								JOINT LeftHandIndex1
								{
									OFFSET 0.750000 0.000000 0.000000
									CHANNELS 3 Zrotation Yrotation Xrotation
									End Site
									{
										OFFSET 0.000000 0.000000 0.000000
									}
								}
							}
						}
					}
				}
				JOINT RightShoulder
				{
					OFFSET 0.000000 0.000000 0.000000
					CHANNELS 3 Zrotation Yrotation Xrotation
					JOINT RightArm
					{
						OFFSET -2.700000 1.550000 -0.730000
						CHANNELS 3 Zrotation Yrotation Xrotation
						JOINT RightForeArm
						{
							OFFSET -5.450000 0.000000 0.000000
							CHANNELS 3 Zrotation Yrotation Xrotation
							JOINT RightHand
							{
								OFFSET -3.450000 0.000000 0.000000
								CHANNELS 3 Zrotation Yrotation Xrotation
								JOINT RightHandIndex1
								{
									OFFSET -0.750000 0.000000 0.000000
									CHANNELS 3 Zrotation Yrotation Xrotation
									End Site
									{
										OFFSET 0.000000 0.000000 0.000000
									}
								}
							}
						}
					}
				}
			}
		}
	}
}
MOTION
Frames: 14
Frame Time: 0.016667
2.323880 17.974410 -0.924100 -2.731341 -36.810418 -0.129504 -15.176436 13.874753 2.576125 5.037319 0.048451 -6.075145 -2.190273 4.952131 11.016622 -0.290492 3.994023 3.269695 0.116000 0.181250 0.020520 18.224710 -10.843021 2.591528 -7.951403 0.586488 -11.321913 4.187236 -3.482422 7.677476 0.065681 -3.208037 3.245853 0.326200 0.379940 0.065570 -3.254030 -2.599723 -6.599748 3.805880 -0.735166 3.640945 17.865963 -5.088408 7.086189 -8.476725 0.095725 -7.854092 -1.626518 4.589878 27.072439 -0.942070 6.024420 -4.081860 9.359838 -4.596050 -0.049052 24.144667 -2.969214 0.937185 68.496373 -47.609674 -22.994186 -4.335342 3.161979 -0.109480 0.348200 -0.213520 0.080170 8.648168 3.969130 4.270263 29.525726 6.258860 -5.448662 -4.724417 81.959747 -5.471527 1.806265 -1.910625 -0.209440 0.235390 0.067920 -0.021760 
2.325380 17.969720 -0.924010 -2.681073 -37.437793 0.181319 -15.175139 13.846645 2.583499 4.969485 0.004713 -6.173393 -2.479627 4.987031 10.940297 -0.310983 4.007904 3.263599 0.141580 0.213350 0.030600 18.231515 -10.838778 2.580694 -7.923243 0.641522 -11.790694 4.093305 -3.428547 7.769438 0.074621 -3.182615 3.247516 0.357660 0.386480 0.067040 -3.287503 -2.562529 -6.571865 3.924666 -0.795418 3.406581 18.094888 -5.159218 7.045870 -8.559012 0.290447 -7.579714 -1.282375 4.455250 26.873635 -0.854420 5.898500 -4.277280 10.168566 -4.380883 -0.382584 23.992543 -4.201923 1.391633 71.026282 -52.755480 -27.152717 -4.255489 3.080734 -0.119500 0.358270 -0.220700 0.087840 8.017794 3.588095 3.879646 28.937252 7.112541 -5.066093 -7.165953 81.346752 -6.902618 1.775161 -1.892307 -0.211050 0.243230 0.061090 -0.022000 
2.325620 17.960740 -0.924730 -2.647832 -38.036949 0.407622 -15.170752 13.818130 2.591221 5.053570 -0.027198 -6.213375 -2.881811 5.063366 10.836070 -0.306273 4.037943 3.254993 0.145670 0.219350 0.026350 18.239408 -10.840090 2.572817 -7.867889 0.678377 -12.157827 4.024457 -3.398021 7.882188 0.087638 -3.170927 3.246053 0.366710 0.398640 0.074410 -3.326894 -2.514930 -6.553683 4.136880 -0.922199 3.142671 18.261677 -5.299591 7.071567 -8.559684 0.411695 -7.438423 -1.091040 4.348599 27.105464 -0.875790 5.824190 -3.777510 11.023120 -4.343748 -0.529095 23.251054 -5.185215 1.865650 72.457985 -58.243668 -31.158295 -4.141338 2.976282 -0.139610 0.372810 -0.232670 0.092580 7.174663 3.401567 3.525828 28.340861 8.143911 -4.747393 -10.833873 80.750794 -9.172333 1.747394 -1.852357 -0.207010 0.237470 0.060800 -0.015950 
2.328810 17.954160 -0.924850 -2.638963 -38.581228 0.567273 -15.169002 13.806414 2.601954 5.107261 -0.051331 -6.258200 -3.220084 5.142848 10.827567 -0.305169 4.071286 3.244607 0.140080 0.209840 0.018820 18.242598 -10.838090 2.567492 -7.761595 0.707857 -12.449078 3.846193 -3.350453 7.945884 0.102691 -3.149622 3.253006 0.365350 0.408520 0.077260 -3.346399 -2.501122 -6.549244 4.357043 -1.045828 2.965173 18.459000 -5.401130 7.120067 -8.483176 0.349353 -7.393438 -1.229972 4.319691 27.546012 -1.014060 5.792830 -3.269690 11.769809 -4.477244 -0.558622 22.117620 -6.049709 2.268623 74.148142 -63.744132 -35.613787 -3.977717 2.784229 -0.148820 0.383270 -0.245360 0.092430 6.275944 3.538849 3.286319 27.365702 9.019739 -4.585040 -15.164006 80.402666 -11.927286 1.714093 -1.784751 -0.209350 0.233380 0.067030 -0.015480 
2.332750 17.942560 -0.928630 -2.414960 -39.080599 0.480915 -15.171882 13.811233 2.618424 4.986748 -0.045860 -6.233706 -3.405375 5.185505 10.840545 -0.301693 4.089459 3.236500 0.137840 0.211140 0.014210 18.238524 -10.832848 2.559280 -7.864150 0.715126 -12.699475 3.710110 -3.320614 7.987480 0.110859 -3.131929 3.255917 0.367050 0.412390 0.083190 -3.341010 -2.525956 -6.553897 4.490828 -1.100689 2.962161 18.472689 -5.363641 7.167764 -8.324979 0.115207 -7.334353 -1.634276 4.552901 27.861913 -1.281660 6.018830 -3.122920 12.196808 -4.641237 -0.511848 20.666809 -7.143165 2.572698 76.211904 -68.536990 -40.247292 -3.772002 2.488162 -0.155580 0.391250 -0.247260 0.091730 5.519872 3.921099 3.054102 25.870492 9.688837 -4.607359 -21.187052 80.413548 -15.953821 1.666917 -1.669978 -0.206710 0.230110 0.070960 -0.013840 
2.338880 17.927820 -0.936710 -2.066083 -39.345104 0.165547 -15.173306 13.826249 2.644420 4.823657 -0.011867 -6.094233 -3.582153 5.225664 10.804193 -0.284450 4.104226 3.231574 0.135530 0.215340 0.007740 18.232397 -10.843819 2.538368 -8.042643 0.693575 -12.879603 3.381787 -3.288673 8.212821 0.116625 -3.117019 3.263087 0.364270 0.415930 0.091790 -3.324057 -2.551028 -6.567824 4.600513 -1.198742 3.122140 18.152057 -5.312906 7.254066 -8.013722 -0.115251 -7.324049 -2.010281 4.949019 28.307158 -1.540220 6.430230 -2.901130 12.315387 -4.935663 -0.296128 19.110697 -8.396866 2.902653 79.867399 -72.160268 -45.678466 -3.525642 2.029503 -0.165070 0.400050 -0.244930 0.094950 4.767812 4.501305 2.770390 24.089662 10.464163 -4.709117 -28.694917 80.263766 -20.864832 1.602083 -1.491709 -0.197590 0.223680 0.070580 -0.008350 
2.347800 17.907110 -0.943970 -1.774598 -39.506481 -0.161277 -15.158169 13.810502 2.657088 4.714409 0.013560 -6.031198 -3.774843 5.301926 11.001343 -0.265116 4.118106 3.226356 0.120040 0.207320 -0.008140 18.237827 -10.899087 2.532441 -8.229864 0.652761 -13.059905 3.118823 -3.279861 8.452096 0.128875 -3.120886 3.264868 0.355560 0.422230 0.092460 -3.352847 -2.435105 -6.586467 4.909921 -1.204391 3.317666 17.517354 -5.164253 7.493571 -7.457746 -0.069005 -7.420589 -1.844771 4.947982 28.864407 -1.820630 6.597450 -2.280530 12.327407 -5.105776 0.221722 17.652256 -9.895137 3.700612 86.306838 -73.950246 -52.893153 -3.265613 1.354074 -0.184620 0.411310 -0.253130 0.093220 3.646961 4.788028 2.340911 22.402780 11.300178 -4.810614 -37.193086 80.038723 -26.292910 1.511826 -1.236691 -0.191450 0.214880 0.075040 -0.001190 
2.359890 17.888560 -0.948600 -1.687513 -39.547877 -0.109008 -15.137462 13.752625 2.657598 4.647704 -0.024870 -6.237424 -3.948254 5.343486 11.197283 -0.243018 4.095224 3.233083 0.104050 0.199520 -0.021890 18.248501 -10.974929 2.552238 -8.247523 0.640421 -13.403418 2.969004 -3.260065 8.500302 0.137678 -3.113329 3.269661 0.342200 0.425450 0.096790 -3.397125 -2.188286 -6.618559 5.172129 -1.142169 3.361565 17.400515 -4.992289 7.879660 -6.696670 0.061693 -7.863160 -1.426138 4.793996 29.405532 -2.211100 6.698930 -1.602830 12.175627 -5.188529 1.763623 17.105004 -11.020444 5.959604 96.827313 -72.912324 -64.773550 -3.250121 0.745212 -0.207100 0.420550 -0.255230 0.093530 2.393807 4.866249 1.544232 19.881249 12.413036 -4.795674 -45.508648 79.106904 -30.833358 1.406567 -0.930657 -0.178910 0.202180 0.074610 0.010240 
2.370070 17.873670 -0.959160 -1.536184 -39.626836 -0.263361 -15.124696 13.720434 2.659325 4.637176 -0.044840 -6.392627 -4.175003 5.438798 11.574538 -0.225596 4.099726 3.225772 0.106260 0.202630 -0.015660 18.250356 -11.034342 2.564782 -8.359963 0.611519 -13.623418 2.921089 -3.278980 8.602803 0.134240 -3.112197 3.269003 0.333720 0.412810 0.105330 -3.408790 -2.020103 -6.645836 5.368092 -1.092897 3.578539 17.040026 -4.808275 8.421650 -5.911780 -0.005250 -8.426577 -1.377684 4.779690 29.838704 -2.727840 6.905300 -1.403520 11.782111 -5.574403 3.523591 16.947347 -11.541740 8.099931 106.736920 -70.495192 -79.003084 -3.743287 1.436072 -0.211780 0.419120 -0.245360 0.093950 1.321932 5.344333 0.872098 17.024337 13.550132 -4.711370 -54.713966 77.604577 -35.364915 1.257443 -0.534280 -0.164300 0.186110 0.066530 0.012050 
2.378330 17.861240 -0.971670 -1.295410 -39.741787 -0.526592 -15.122382 13.723724 2.668866 4.597261 -0.051424 -6.524465 -4.445100 5.558692 11.959839 -0.229509 4.141080 3.206967 0.116950 0.216740 -0.004950 18.246569 -11.053851 2.552505 -8.542487 0.585920 -13.876747 2.851390 -3.305571 8.903733 0.136040 -3.113833 3.263384 0.345180 0.411550 0.112230 -3.402920 -1.999770 -6.650886 5.610571 -1.291978 3.835780 16.296654 -4.775564 8.785899 -5.265611 -0.114941 -8.547613 -1.459300 5.129678 29.901957 -3.157010 7.316960 -1.535250 11.518966 -6.217891 4.155455 16.221248 -12.306769 8.763438 116.289460 -70.518758 -94.227072 -4.090409 2.553030 -0.215700 0.427710 -0.243250 0.094610 0.329243 6.147956 0.505516 14.011041 15.679694 -3.793466 -62.874361 74.627241 -38.233867 1.128260 -0.247124 -0.162320 0.184680 0.062850 0.008430 
2.383150 17.851060 -0.977720 -1.199130 -40.070377 -0.586516 -15.127445 13.730942 2.677971 4.631795 -0.056588 -6.629291 -4.716057 5.665086 12.184039 -0.236533 4.188335 3.189027 0.125160 0.226770 0.012340 18.240635 -11.047860 2.543544 -8.553041 0.584563 -14.084467 2.668676 -3.271513 9.000844 0.142204 -3.102529 3.262430 0.358240 0.411370 0.118940 -3.386231 -2.023768 -6.654564 5.816141 -1.578440 3.960140 15.730365 -4.830987 9.015855 -4.678791 -0.165231 -8.511484 -1.476393 5.445437 29.827685 -3.902530 7.839020 -1.627760 11.319666 -7.182658 4.022271 15.409434 -12.924283 8.437031 128.823143 -71.497001 -111.002253 -4.196010 3.377349 -0.223420 0.442260 -0.244190 0.091580 -0.631767 7.252994 0.553823 10.695397 18.411939 -2.336968 -69.582897 70.115467 -39.689832 1.116683 -0.215449 -0.164580 0.184280 0.059240 0.000580 
2.390590 17.841520 -0.982810 -1.041937 -40.483785 -0.872819 -15.129777 13.729018 2.691132 4.706140 -0.021386 -6.515013 -5.074088 5.805977 12.373079 -0.236697 4.260160 3.163031 0.128730 0.229640 0.024830 18.234960 -11.062966 2.531081 -8.658528 0.557269 -14.200233 2.480360 -3.267708 9.199060 0.148188 -3.112461 3.253541 0.366220 0.413620 0.131370 -3.373795 -1.999240 -6.664034 5.917996 -1.763629 4.165837 15.176918 -4.820261 9.487846 -4.111129 -0.075577 -8.584879 -1.233749 5.670211 29.828642 -4.646590 8.327700 -1.569240 11.122615 -8.421166 3.787002 14.366581 -13.940017 7.992676 140.411638 -71.873116 -125.190457 -4.193183 3.703486 -0.232390 0.460570 -0.247230 0.087140 -1.564517 8.561313 0.888137 7.610821 21.466505 -0.928418 -74.266958 63.753286 -39.564832 1.273435 -0.505229 -0.165010 0.178050 0.059970 -0.006910 
2.402000 17.834100 -0.991690 -1.020307 -40.618241 -1.090525 -15.123532 13.728080 2.691031 4.813570 -0.020291 -6.512233 -5.156264 5.880870 12.691973 -0.236358 4.301566 3.150905 0.133120 0.240000 0.020120 18.235687 -11.101178 2.521185 -8.627533 0.520185 -14.292572 2.214988 -3.254139 9.521999 0.154723 -3.122354 3.251260 0.377380 0.427400 0.136500 -3.378706 -1.932069 -6.664883 6.025943 -1.968882 4.375584 14.604978 -4.811024 10.037773 -3.573020 0.086886 -8.740320 -0.855253 5.681907 29.803858 -4.752440 8.271220 -1.425860 11.329595 -9.753350 3.738376 12.952069 -15.351358 7.729362 148.651463 -71.015798 -134.842167 -4.165160 3.812180 -0.245880 0.474960 -0.254390 0.094100 -2.840791 9.896653 1.100282 4.711160 24.181609 -0.265333 -76.116293 58.030656 -38.163262 1.460966 -0.849499 -0.164470 0.182880 0.059860 -0.001010 
2.411760 17.833070 -1.004860 -1.011861 -40.867541 -1.371532 -15.118350 13.713228 2.687729 4.914703 0.007611 -6.390371 -5.245519 5.961840 12.979856 -0.218087 4.328191 3.140417 0.134090 0.253050 0.006360 18.236646 -11.147825 2.519877 -8.484953 0.477468 -14.305113 1.882078 -3.205030 9.705083 0.159116 -3.120848 3.254857 0.382440 0.432280 0.133560 -3.383619 -1.818680 -6.668075 6.011345 -2.092197 4.519590 14.017364 -4.749172 10.670607 -2.943130 0.302248 -8.977805 -0.383194 5.448622 30.103632 -4.600990 7.896190 -1.169440 11.486142 -11.340663 3.905901 11.519964 -16.835948 7.542337 152.012206 -70.227695 -138.898759 -4.128115 3.833471 -0.261660 0.476220 -0.257060 0.101510 -4.217630 11.512294 1.227819 1.999581 26.761091 -0.222009 -75.670634 53.519993 -35.746397 1.612120 -1.102207 -0.155960 0.184420 0.057530 0.012520 
